<svg width="103" height="41" viewBox="0 0 103 41" fill="none" xmlns="http://www.w3.org/2000/svg">
<g clip-path="url(#clip0_1770_701)">
<path d="M94.3563 14.451L79.7146 13.8774C78.9963 13.8774 78.135 13.5897 77.5614 13.3029L68.2303 6.988C62.4891 3.11056 55.7427 1.1012 48.7086 1.1012H35.2159C32.0584 1.1012 29.0431 1.96247 26.3163 3.5412L12.5359 11.4365C12.249 11.5795 11.9614 11.7233 11.6746 11.7233L7.79883 11.8663C6.21926 11.8663 4.64139 12.4408 3.49245 13.5889C2.34352 14.7386 1.62607 16.1744 1.62607 17.8969V23.0646C1.62607 29.0927 6.50607 34.1174 12.6788 34.1174H13.8278C15.4056 37.4195 18.7069 39.8586 22.5827 39.8586C26.4584 39.8586 29.9035 37.5616 31.3384 34.1174H73.2542C74.8346 37.4195 78.135 39.8586 82.0116 39.8586C85.8874 39.8586 89.3325 37.5616 90.7673 34.1174H91.055C97.084 34.1174 102.108 29.2365 102.108 23.0646C102.538 18.1838 98.9495 14.594 94.3563 14.451ZM13.5401 32.6816H12.8218C8.94607 32.6816 5.50096 30.3855 3.92224 27.0833H13.6839C13.3963 27.9446 13.2525 28.9497 13.2525 29.954C13.2525 30.8152 13.3971 31.8203 13.5401 32.6816ZM30.9095 32.6816C30.7665 33.1123 30.6227 33.3999 30.4788 33.8306C29.0439 36.5574 26.1725 38.4229 23.015 38.4229C19.8576 38.4229 16.8422 36.5565 15.4073 33.8297C15.2627 33.5429 15.1205 33.1123 14.9767 32.6816C14.6899 31.8203 14.4031 30.8152 14.4031 29.811C14.4031 28.8067 14.5461 27.8016 14.9767 26.9403C15.1205 26.5097 15.2644 26.222 15.4073 25.7914C16.8422 23.0646 19.7137 21.1991 22.872 21.1991C26.0312 21.1991 28.901 23.0655 30.3359 25.7923C30.4788 26.0791 30.6235 26.5097 30.7673 26.9403C31.0542 27.8016 31.341 28.8067 31.341 29.811C31.341 30.8152 31.1971 31.8203 30.9095 32.6816ZM73.255 32.6816H32.0576C32.3444 31.8203 32.489 30.8152 32.489 29.811C32.489 28.8067 32.3444 27.8016 32.0576 26.9403H73.255C72.9682 27.8016 72.8252 28.8067 72.8252 29.811C72.8252 30.8152 72.9682 31.8203 73.255 32.6816ZM90.4805 32.6816C90.3376 33.1123 90.1937 33.3999 90.0499 33.8306C88.615 36.5574 85.7435 38.4229 82.5861 38.4229C79.2839 38.4229 76.4133 36.5565 75.1222 33.8297C74.9776 33.5429 74.8346 33.1123 74.6908 32.6816C74.4031 31.8203 74.1163 30.8152 74.1163 29.811C74.1163 28.8067 74.261 27.8016 74.6908 26.9403C74.8346 26.5097 74.9776 26.222 75.1214 25.7914C76.5571 23.0646 79.4278 21.1991 82.5852 21.1991C85.7427 21.1991 88.615 23.0655 90.0499 25.7923C90.1937 26.0791 90.3376 26.5097 90.4805 26.9403C90.7673 27.8016 91.055 28.8067 91.055 29.811C90.9112 30.8161 90.7673 31.8203 90.4805 32.6816ZM91.6286 32.6816C91.9163 31.8203 92.0601 30.8152 92.0601 29.811C92.0601 28.8067 91.9163 27.8016 91.6286 26.9403H100.385C99.5895 28.606 98.3526 30.0219 96.8088 31.034C95.2651 32.0462 93.4735 32.616 91.6286 32.6816ZM91.1988 25.9352C89.6193 22.6331 86.3171 20.1931 82.4422 20.1931C78.5674 20.1931 75.1214 22.4901 73.6865 25.9352H31.6261C30.0465 22.6331 26.7452 20.1931 22.8695 20.1931C18.9937 20.1931 15.5486 22.4901 14.1137 25.9352H3.4916C3.19809 25.0561 3.05284 24.1343 3.06181 23.2076H5.93245C6.08125 23.1971 6.22125 23.1331 6.32665 23.0276C6.43205 22.922 6.49577 22.7819 6.50607 22.6331C6.49557 22.4844 6.43177 22.3446 6.32638 22.2392C6.221 22.1338 6.08112 22.07 5.93245 22.0595H3.06181V18.4714H5.93245C6.08125 18.4609 6.22125 18.397 6.32665 18.2914C6.43205 18.1858 6.49577 18.0458 6.50607 17.8969C6.49577 17.7481 6.43205 17.608 6.32665 17.5025C6.22125 17.3969 6.08125 17.333 5.93245 17.3225H3.20479C3.34777 16.1744 3.77841 15.0263 4.63969 14.165C5.50096 13.3037 6.79288 12.8723 7.94181 12.8723H8.08564L11.9614 12.7293C12.3929 12.7293 12.9665 12.5863 13.3971 12.2986L27.1776 4.26034C29.7614 2.82545 32.632 1.96417 35.5035 1.96417H48.9963C55.7427 1.96417 62.2022 3.97269 67.8005 7.70545L77.1308 14.0203C77.9857 14.4566 78.9072 14.748 79.8576 14.8825L94.4993 15.4561C97.0839 15.5991 99.2363 16.8918 100.385 18.9012H94.7869C94.6382 18.912 94.4983 18.976 94.3928 19.0815C94.2873 19.187 94.2233 19.3269 94.2125 19.4757C94.2228 19.6245 94.2867 19.7646 94.3923 19.8701C94.4979 19.9755 94.638 20.0392 94.7869 20.0493H100.959C101.247 20.9106 101.533 21.7718 101.533 22.7769C101.533 23.9259 101.39 24.9301 100.959 25.9344H91.198L91.1988 25.9352Z" fill="#0F0F0F"/>
<path d="M13.5401 32.6816H12.8218C8.94607 32.6816 5.50096 30.3855 3.92224 27.0833H13.6839C13.3963 27.9446 13.2525 28.9497 13.2525 29.954C13.2525 30.8152 13.3971 31.8203 13.5401 32.6816ZM13.5401 32.6816H13.541M94.3563 14.451L79.7146 13.8774C78.9963 13.8774 78.135 13.5897 77.5614 13.3029L68.2303 6.988C62.4891 3.11056 55.7427 1.1012 48.7086 1.1012H35.2159C32.0584 1.1012 29.0431 1.96247 26.3163 3.5412L12.5359 11.4365C12.249 11.5795 11.9614 11.7233 11.6746 11.7233L7.79883 11.8663C6.21926 11.8663 4.64139 12.4408 3.49245 13.5889C2.34352 14.7386 1.62607 16.1744 1.62607 17.8969V23.0646C1.62607 29.0927 6.50607 34.1174 12.6788 34.1174H13.8278C15.4056 37.4195 18.7069 39.8586 22.5827 39.8586C26.4584 39.8586 29.9035 37.5616 31.3384 34.1174H73.2542C74.8346 37.4195 78.135 39.8586 82.0116 39.8586C85.8874 39.8586 89.3325 37.5616 90.7674 34.1174H91.055C97.084 34.1174 102.108 29.2365 102.108 23.0646C102.538 18.1837 98.9495 14.594 94.3563 14.451ZM30.9095 32.6816C30.7665 33.1123 30.6227 33.3999 30.4788 33.8306C29.0439 36.5574 26.1725 38.4229 23.015 38.4229C19.8576 38.4229 16.8422 36.5565 15.4073 33.8297C15.2627 33.5429 15.1205 33.1123 14.9767 32.6816C14.6899 31.8203 14.4031 30.8152 14.4031 29.811C14.4031 28.8067 14.5461 27.8016 14.9767 26.9403C15.1205 26.5097 15.2644 26.222 15.4073 25.7914C16.8422 23.0646 19.7137 21.1991 22.872 21.1991C26.0312 21.1991 28.901 23.0655 30.3359 25.7923C30.4788 26.0791 30.6235 26.5097 30.7673 26.9403C31.0542 27.8016 31.341 28.8067 31.341 29.811C31.341 30.8152 31.1971 31.8203 30.9095 32.6816ZM73.255 32.6816H32.0576C32.3444 31.8203 32.489 30.8152 32.489 29.811C32.489 28.8067 32.3444 27.8016 32.0576 26.9403H73.255C72.9682 27.8016 72.8252 28.8067 72.8252 29.811C72.8252 30.8152 72.9682 31.8203 73.255 32.6816ZM90.4805 32.6816C90.3376 33.1123 90.1937 33.3999 90.0499 33.8306C88.615 36.5574 85.7435 38.4229 82.5861 38.4229C79.2839 38.4229 76.4133 36.5565 75.1222 33.8297C74.9776 33.5429 74.8346 33.1123 74.6908 32.6816C74.4031 31.8203 74.1163 30.8152 74.1163 29.811C74.1163 28.8067 74.261 27.8016 74.6908 26.9403C74.8346 26.5097 74.9776 26.222 75.1214 25.7914C76.5571 23.0646 79.4278 21.1991 82.5852 21.1991C85.7427 21.1991 88.615 23.0655 90.0499 25.7923C90.1937 26.0791 90.3376 26.5097 90.4805 26.9403C90.7674 27.8016 91.055 28.8067 91.055 29.811C90.9112 30.8161 90.7674 31.8203 90.4805 32.6816ZM91.6286 32.6816C91.9163 31.8203 92.0601 30.8152 92.0601 29.811C92.0601 28.8067 91.9163 27.8016 91.6286 26.9403H100.385C99.5895 28.606 98.3526 30.0219 96.8088 31.034C95.2651 32.0462 93.4735 32.616 91.6286 32.6816ZM91.1988 25.9352C89.6193 22.6331 86.3171 20.1931 82.4422 20.1931C78.5674 20.1931 75.1214 22.4901 73.6865 25.9352H31.6261C30.0465 22.6331 26.7452 20.1931 22.8695 20.1931C18.9937 20.1931 15.5486 22.4901 14.1137 25.9352H3.4916C3.19809 25.0561 3.05284 24.1343 3.06181 23.2076H5.93245C6.08125 23.1971 6.22125 23.1331 6.32665 23.0276C6.43205 22.922 6.49577 22.7819 6.50607 22.6331C6.49557 22.4844 6.43177 22.3446 6.32638 22.2392C6.221 22.1338 6.08112 22.07 5.93245 22.0595H3.06181V18.4714H5.93245C6.08125 18.4609 6.22125 18.397 6.32665 18.2914C6.43205 18.1858 6.49577 18.0458 6.50607 17.8969C6.49577 17.7481 6.43205 17.608 6.32665 17.5025C6.22125 17.3969 6.08125 17.333 5.93245 17.3225H3.20479C3.34777 16.1744 3.77841 15.0263 4.63969 14.165C5.50096 13.3037 6.79288 12.8723 7.94181 12.8723H8.08564L11.9614 12.7293C12.3929 12.7293 12.9665 12.5863 13.3971 12.2986L27.1776 4.26034C29.7614 2.82545 32.632 1.96417 35.5035 1.96417H48.9963C55.7427 1.96417 62.2022 3.97269 67.8005 7.70545L77.1308 14.0203C77.9857 14.4566 78.9072 14.748 79.8576 14.8825L94.4993 15.4561C97.0839 15.5991 99.2363 16.8918 100.385 18.9012H94.7869C94.6382 18.912 94.4983 18.976 94.3928 19.0815C94.2873 19.187 94.2233 19.3269 94.2125 19.4757C94.2228 19.6245 94.2867 19.7646 94.3923 19.8701C94.4979 19.9755 94.638 20.0392 94.7869 20.0493H100.959C101.247 20.9106 101.533 21.7718 101.533 22.7769C101.533 23.9259 101.39 24.9301 100.959 25.9344H91.198L91.1988 25.9352Z" stroke="#0F0F0F" stroke-width="0.3"/>
<path d="M49.4267 4.40393H37.0829C34.0676 4.40393 31.054 5.6967 28.9008 7.99287C28.4091 8.49415 28.0781 9.13071 27.9501 9.82112C27.8222 10.5115 27.9031 11.2244 28.1825 11.8686C28.7569 13.1605 29.905 14.0218 31.3399 14.0218L71.5331 15.3154C71.8208 15.3154 72.1076 15.1716 72.1076 14.8848V14.4533L68.5187 11.4388C63.351 6.98861 56.4608 4.40393 49.4267 4.40393ZM31.3399 13.0167C30.3357 13.0167 29.4735 12.4422 29.1867 11.4371C28.7569 10.5758 29.0438 9.57074 29.7612 8.70946C31.6276 6.7001 34.3544 5.55202 37.0821 5.55202H47.4174L50.288 13.5895L31.3399 13.0158V13.0167ZM51.4361 13.7341L48.5655 5.55287H49.4267C56.174 5.55287 62.7765 7.99287 67.9442 12.2992L70.2412 14.3086L51.4361 13.7341ZM86.3186 25.9358C85.3144 24.9307 84.0225 24.3563 82.4429 24.3563C80.8633 24.3563 79.5723 24.9307 78.568 25.9358C78.2812 26.2227 77.9935 26.6533 77.7067 27.0839C77.1428 27.9349 76.8432 28.9337 76.8455 29.9546C76.8431 30.9755 77.1427 31.9742 77.7067 32.8252C77.9935 33.2558 78.2812 33.5427 78.568 33.9741C79.5723 34.9784 81.008 35.5529 82.4429 35.5529C83.8786 35.5529 85.3144 34.9792 86.3186 33.9733C86.6063 33.6865 86.8931 33.2558 87.1799 32.8252C87.6114 31.9639 88.0412 31.1027 88.0412 29.9546C88.0437 28.9337 87.744 27.9348 87.1799 27.0839C86.8931 26.6533 86.6063 26.2235 86.3186 25.9358ZM85.745 32.6822C85.3144 33.112 84.8838 33.5435 84.3093 33.8312C83.7357 34.118 83.0174 34.4048 82.2999 34.4048C81.5825 34.4048 80.865 34.2618 80.2906 33.8303C79.7161 33.5435 79.2855 33.1129 78.8548 32.6822C78.2059 31.866 77.852 30.8543 77.8506 29.8116C77.8506 28.6627 78.2812 27.8022 78.8548 26.941C79.2855 26.5103 79.7161 26.0797 80.2906 25.792C80.8642 25.5052 81.5816 25.3622 82.2999 25.3622C83.0182 25.3622 83.591 25.5052 84.3093 25.792C84.8838 26.0797 85.3144 26.5103 85.745 26.941C86.4633 27.6584 86.7501 28.6635 86.7501 29.8116C86.8931 30.9605 86.4633 31.9648 85.745 32.6822ZM55.745 17.7537H52.8744C52.7254 17.764 52.5852 17.8279 52.4797 17.9335C52.3741 18.039 52.3102 18.1792 52.2999 18.3282C52.3104 18.477 52.3744 18.617 52.4799 18.7224C52.5855 18.8278 52.7256 18.8915 52.8744 18.9018H55.745C55.8938 18.8915 56.0339 18.8278 56.1395 18.7224C56.2451 18.617 56.309 18.477 56.3195 18.3282C56.3195 18.0405 56.1765 17.7537 55.745 17.7537ZM34.3569 17.7537H31.4863C31.3374 17.764 31.1972 17.8279 31.0916 17.9335C30.986 18.039 30.9222 18.1792 30.9118 18.3282C30.9224 18.477 30.9863 18.617 31.0918 18.7224C31.1974 18.8278 31.3375 18.8915 31.4863 18.9018H34.3569C34.5056 18.8913 34.6455 18.8275 34.7509 18.7221C34.8563 18.6167 34.9201 18.4769 34.9306 18.3282C34.9203 18.1794 34.8565 18.0393 34.7511 17.9337C34.6457 17.8282 34.5058 17.7642 34.3569 17.7537ZM26.7476 25.9358C25.7433 24.9307 24.4514 24.3563 22.8718 24.3563C21.4361 24.3563 20.0012 24.9307 18.9961 25.9358C18.7093 26.2227 18.4216 26.6533 18.1348 27.0839C17.5709 27.9349 17.2713 28.9337 17.2735 29.9546C17.2712 30.9755 17.5708 31.9742 18.1348 32.8252C18.4216 33.2558 18.7093 33.5427 18.9961 33.9741C20.0012 34.9784 21.4361 35.5529 22.8718 35.5529C24.4514 35.5529 25.7425 34.9792 26.7476 33.9733C27.0352 33.6865 27.3221 33.2558 27.6089 32.8252C28.0404 31.9639 28.4701 31.1027 28.4701 29.9546C28.4725 28.9337 28.1728 27.9349 27.6089 27.0839C27.3221 26.6533 27.0352 26.2235 26.7476 25.9358ZM26.174 32.6822C25.7425 33.112 25.3127 33.5435 24.7382 33.8312C24.1646 34.118 23.4463 34.4048 22.7289 34.4048C22.0114 34.4048 21.2931 34.2618 20.7195 33.8303C20.145 33.5435 19.7152 33.1129 19.2838 32.6822C18.6348 31.866 18.2809 30.8543 18.2795 29.8116C18.2795 28.6627 18.7093 27.8022 19.2838 26.941C19.7144 26.5103 20.145 26.0797 20.7195 25.792C21.2931 25.5052 22.0114 25.3622 22.728 25.3622C23.4463 25.3622 24.0216 25.5052 24.7382 25.792C25.3127 26.0797 25.7433 26.5103 26.174 26.941C26.8914 27.6584 27.1782 28.6635 27.1782 29.8116C27.3221 30.9605 26.8914 31.9648 26.174 32.6822Z" fill="#0F0F0F" stroke="#0F0F0F" stroke-width="0.3"/>
</g>
<defs>
<clipPath id="clip0_1770_701">
<rect width="102.128" height="40" fill="white" transform="translate(0.775482 0.710571)"/>
</clipPath>
</defs>
</svg>
